<svg height="654" width="720" xmlns="http://www.w3.org/2000/svg">
<rect height="654" fill="#555" width="720"></rect>
<text fill="#7f7" font-family="Courier New" font-size="12" xml:space="preserve">
<tspan x="10" y="26">15 megabytes installed</tspan>
<tspan x="10" y="42"></tspan>
<tspan x="10" y="58">node_modules</tspan>
<tspan x="10" y="74">└─┬ xlsx2json@1.0.0 </tspan>
<tspan x="10" y="90">  ├── csv-parse@1.2.0 </tspan>
<tspan x="10" y="106">  ├─┬ memoizee@0.4.4 </tspan>
<tspan x="10" y="122">  │ ├── d@1.0.0 </tspan>
<tspan x="10" y="138">  │ ├─┬ es5-ext@0.10.15 </tspan>
<tspan x="10" y="154">  │ │ ├── es6-iterator@2.0.1 </tspan>
<tspan x="10" y="170">  │ │ └── es6-symbol@3.1.1 </tspan>
<tspan x="10" y="186">  │ ├── es6-weak-map@2.0.2 </tspan>
<tspan x="10" y="202">  │ ├── event-emitter@0.3.5 </tspan>
<tspan x="10" y="218">  │ ├── is-promise@2.1.0 </tspan>
<tspan x="10" y="234">  │ ├── lru-queue@0.1.0 </tspan>
<tspan x="10" y="250">  │ ├── next-tick@1.0.0 </tspan>
<tspan x="10" y="266">  │ └── timers-ext@0.1.2 </tspan>
<tspan x="10" y="282">  └─┬ xlsx@0.8.8 </tspan>
<tspan x="10" y="298">    ├─┬ adler-32@1.0.0 </tspan>
<tspan x="10" y="314">    │ ├─┬ concat-stream@1.6.0 </tspan>
<tspan x="10" y="330">    │ │ ├── inherits@2.0.3 </tspan>
<tspan x="10" y="346">    │ │ ├─┬ readable-stream@2.2.9 </tspan>
<tspan x="10" y="362">    │ │ │ ├── buffer-shims@1.0.0 </tspan>
<tspan x="10" y="378">    │ │ │ ├── core-util-is@1.0.2 </tspan>
<tspan x="10" y="394">    │ │ │ ├── isarray@1.0.0 </tspan>
<tspan x="10" y="410">    │ │ │ ├── process-nextick-args@1.0.7 </tspan>
<tspan x="10" y="426">    │ │ │ ├── string_decoder@1.0.0 </tspan>
<tspan x="10" y="442">    │ │ │ └── util-deprecate@1.0.2 </tspan>
<tspan x="10" y="458">    │ │ └── typedarray@0.0.6 </tspan>
<tspan x="10" y="474">    │ └── printj@1.0.0 </tspan>
<tspan x="10" y="490">    ├── cfb@0.11.1 </tspan>
<tspan x="10" y="506">    ├─┬ codepage@1.8.1 </tspan>
<tspan x="10" y="522">    │ └── voc@0.5.0 </tspan>
<tspan x="10" y="538">    ├─┬ commander@2.9.0 </tspan>
<tspan x="10" y="554">    │ └── graceful-readlink@1.0.1 </tspan>
<tspan x="10" y="570">    ├── crc-32@1.0.1 </tspan>
<tspan x="10" y="586">    ├── exit-on-epipe@1.0.0 </tspan>
<tspan x="10" y="602">    └─┬ ssf@0.8.2 </tspan>
<tspan x="10" y="618">      ├── colors@0.6.2 </tspan>
<tspan x="10" y="634">      └── frac@0.3.1</tspan>
</text>
</svg>
